<mxfile host="app.diagrams.net" modified="2024-06-22T10:52:37.473Z" agent="Mozilla/5.0 (X11; Linux x86_64) AppleWebKit/537.36 (KHTML, like Gecko) Chrome/125.0.0.0 Safari/537.36" version="24.6.1" etag="8VGsWAV7LDKiF2RXTIZ6" type="github">
  <diagram name="PÃ¡gina-1" id="rep0ZwOgzQBH14NcilqM">
    <mxGraphModel>
      <root>
        <mxCell id="0" />
        <mxCell id="1" parent="0" />
      </root>
    </mxGraphModel>
  </diagram>
</mxfile>
